<svg width="14" height="14" viewBox="0 0 14 14" fill="none" xmlns="http://www.w3.org/2000/svg">
<path id="Vector" d="M8.10526 1.10526C8.10526 0.812129 7.98882 0.531001 7.78154 0.323724C7.57426 0.116447 7.29313 0 7 0C6.70687 0 6.42574 0.116447 6.21846 0.323724C6.01118 0.531001 5.89474 0.812129 5.89474 1.10526V5.89474H1.10526C0.812129 5.89474 0.531001 6.01118 0.323724 6.21846C0.116447 6.42574 0 6.70687 0 7C0 7.29313 0.116447 7.57426 0.323724 7.78154C0.531001 7.98882 0.812129 8.10526 1.10526 8.10526H5.89474V12.8947C5.89474 13.1879 6.01118 13.469 6.21846 13.6763C6.42574 13.8836 6.70687 14 7 14C7.29313 14 7.57426 13.8836 7.78154 13.6763C7.98882 13.469 8.10526 13.1879 8.10526 12.8947V8.10526H12.8947C13.1879 8.10526 13.469 7.98882 13.6763 7.78154C13.8836 7.57426 14 7.29313 14 7C14 6.70687 13.8836 6.42574 13.6763 6.21846C13.469 6.01118 13.1879 5.89474 12.8947 5.89474H8.10526V1.10526Z" fill="#9495A5"/>
</svg>
